<?xml version="1.0"?>
<svg width="500" height="500" xmlns="http://www.w3.org/2000/svg" xmlns:svg="http://www.w3.org/2000/svg" version="1.2">
 <g class="layer">
  <title>Layer 1</title>
  <path class="s0" d="m499.1,92.39l0,315.63c0,50.51 -41.16,91.39 -91.55,91.39l-316.2,0c-50.39,0 -91.45,-41.08 -91.45,-91.39l0,-315.63c0,-50.51 40.96,-91.39 91.45,-91.39l316.2,0c50.39,0 91.55,40.98 91.55,91.39z" fill="#686868" id="svg_5" transform="matrix(1 0 0 1 0 0)"/>
  <path class="st0" d="m244.32,187.62c-12.24,-9.89 -55.43,-17.65 -105.82,-17.65s-93.58,7.76 -105.82,17.65c-11.25,9.07 -13.68,50.1 -13.68,73.38s2.42,64.3 13.68,73.38c12.24,9.89 55.43,17.65 105.82,17.65s93.58,-7.76 105.82,-17.65c11.25,-9.07 13.68,-50.09 13.68,-73.38s-2.42,-64.3 -13.68,-73.38zm-69.97,74.5l-55.47,33.11c-0.41,0.23 -0.91,0.25 -1.31,0.02s-0.67,-0.67 -0.67,-1.14l0,-33.11l0,-33.11c0,-0.47 0.26,-0.91 0.67,-1.14s0.9,-0.21 1.31,0.02l55.47,33.11c0.4,0.23 0.63,0.66 0.63,1.12c0,0.45 -0.24,0.89 -0.63,1.12z" fill="#ffffff" id="svg_11"/>
  <rect fill="#686868" height="349" id="svg_30" width="212.55" x="241" y="83"/>
  <line id="svg_9" stroke="rgb(255, 255, 255)" stroke-dasharray="15, 10" stroke-width="4px" x1="243" x2="243" y1="554" y2="-46"/>
  <g id="svg_1">
   <g id="svg_2">
    <path d="m-318,215.61c-5.52,0 -10,-4.64 -10,-10.36l0,-51.79c0,-5.75 4.48,-10.36 10,-10.36s10,4.6 10,10.36l0,51.79c0,5.72 -4.48,10.36 -10,10.36z" fill="#bfbfbf" id="svg_3"/>
   </g>
   <g id="svg_13">
    <path d="m-288.84,241.48c-5.52,0 -10,-4.64 -10,-10.36l0,-103.58c0,-5.72 4.48,-10.36 10,-10.36s10,4.64 10,10.36l0,103.58c0,5.72 -4.48,10.36 -10,10.36z" fill="#bfbfbf" id="svg_14"/>
   </g>
   <g id="svg_15">
    <path d="m-259.67,228.55c-5.52,0 -10,-4.64 -10,-10.36l0,-77.71c0,-5.72 4.48,-10.36 10,-10.36c5.52,0 10,4.64 10,10.36l0,77.71c0,5.72 -4.48,10.36 -10,10.36z" fill="#bfbfbf" id="svg_16"/>
   </g>
   <g id="svg_17">
    <path d="m-230.5,254.46c-5.52,0 -10,-4.64 -10,-10.41l0,-129.45c0,-5.72 4.48,-10.36 10,-10.36s10,4.6 10,10.36l0,129.45c0,5.75 -4.48,10.41 -10,10.41z" fill="#bfbfbf" id="svg_18"/>
   </g>
   <g id="svg_19">
    <path d="m-201.33,281c-5.52,0 -10,-4.64 -10,-10.36l0,-181.28c0,-5.72 4.48,-10.36 10,-10.36c5.52,0 10,4.64 10,10.36l0,181.28c0,5.72 -4.48,10.36 -10,10.36z" fill="#bfbfbf" id="svg_20"/>
   </g>
   <g id="svg_21">
    <path d="m-172.16,241.48c-5.52,0 -10,-4.64 -10,-10.36l0,-103.58c0,-5.72 4.48,-10.36 10,-10.36c5.52,0 10,4.64 10,10.36l0,103.58c0,5.72 -4.48,10.36 -10,10.36z" fill="#bfbfbf" id="svg_22"/>
   </g>
   <g id="svg_23">
    <path d="m-143,202.63c-5.52,0 -10,-4.64 -10,-10.36l0,-25.87c0,-5.72 4.48,-10.36 10,-10.36s10,4.64 10,10.36l0,25.87c0,5.72 -4.48,10.36 -10,10.36z" fill="#bfbfbf" id="svg_24"/>
   </g>
  </g>
  <g id="svg_10">
   <g id="svg_35">
    <path d="m257.51,324.56c-4.7,0 -8.51,-3.95 -8.51,-8.86l0,-110.19c0,-4.87 3.81,-8.82 8.51,-8.82s8.51,3.91 8.51,8.82l0,110.19c0,4.89 -3.81,8.86 -8.51,8.86z" fill="#bfbfbf" id="svg_36"/>
   </g>
   <g id="svg_37">
    <path d="m282.34,347.15c-4.7,0 -8.51,-3.95 -8.51,-8.82l0,-154.3c0,-4.87 3.81,-8.82 8.51,-8.82c4.7,0 8.51,3.95 8.51,8.82l0,154.3c0,4.87 -3.81,8.82 -8.51,8.82z" fill="#bfbfbf" id="svg_38"/>
   </g>
   <g id="svg_39">
    <path d="m307.17,313.52c-4.7,0 -8.51,-3.95 -8.51,-8.82l0,-88.16c0,-4.87 3.81,-8.82 8.51,-8.82c4.7,0 8.51,3.95 8.51,8.82l0,88.16c0,4.87 -3.81,8.82 -8.51,8.82z" fill="#bfbfbf" id="svg_40"/>
   </g>
   <g id="svg_41">
    <path d="m331.99,280.44c-4.7,0 -8.51,-3.95 -8.51,-8.82l0,-22.02c0,-4.87 3.81,-8.82 8.51,-8.82s8.51,3.95 8.51,8.82l0,22.02c0,4.87 -3.81,8.82 -8.51,8.82z" fill="#bfbfbf" id="svg_42"/>
   </g>
  </g>
  <g id="svg_7" transform="matrix(0 -1.06706 1.06706 0 84.4437 674.593)">
   <path d="m468.8,326.09l-9.92,-10.9c-8.19,-8.98 -20.91,-11.38 -31.53,-6.94l-7.12,-7.12c1.78,-4.22 2.77,-8.85 2.77,-13.71c0,-3.01 -0.42,-5.99 -1.17,-8.88l53.35,-50.92c0.65,-0.62 0.92,-1.46 0.87,-2.29c0.01,-0.07 0.04,-0.12 0.04,-0.19c0,-12.9 -3.19,-26.69 -10.15,-28.59c-1.11,-0.77 -2.61,-0.75 -3.65,0.2l-62.46,57.47c-7.84,-2.89 -16.65,-2.88 -24.5,0.01l-62.76,-57.48c-1.05,-0.96 -2.59,-0.96 -3.7,-0.16c-2.38,0.7 -5.16,3.03 -7.25,9.4c-1.7,5.21 -2.59,12.06 -2.5,19.29c0,0.06 0.03,0.11 0.04,0.18c-0.03,0.82 0.24,1.65 0.88,2.25l53.31,50.81c-0.75,2.9 -1.15,5.88 -1.15,8.89c0,4.86 0.99,9.49 2.77,13.71l-7.12,7.13c-3.8,-1.58 -7.92,-2.35 -12.14,-2.16c-7.49,0.35 -14.39,3.58 -19.41,9.1l-9.92,10.91c-5.02,5.51 -7.58,12.68 -7.24,20.18c0.36,7.49 3.59,14.39 9.1,19.4c5.18,4.72 11.82,7.27 18.81,7.27c0.45,0 0.91,-0.01 1.36,-0.03c7.5,-0.35 14.39,-3.58 19.41,-9.1l9.92,-10.91c5.02,-5.52 7.59,-12.68 7.23,-20.18c-0.2,-4.34 -1.4,-8.47 -3.42,-12.16l4.53,-4.53c0.11,-0.12 0.17,-0.26 0.26,-0.39c5.93,4.47 13.27,7.16 21.25,7.16c7.98,0 15.32,-2.68 21.25,-7.16c0.09,0.13 0.15,0.28 0.26,0.39l4.53,4.53c-2.03,3.7 -3.23,7.83 -3.43,12.19c-0.35,7.5 2.23,14.66 7.25,20.17l9.93,10.9c5.02,5.51 11.92,8.74 19.41,9.09c0.45,0.02 0.9,0.03 1.34,0.03c7.01,0 13.64,-2.56 18.83,-7.28c11.42,-10.41 12.24,-28.16 1.84,-39.59l0,0.01zm-124.14,14.92l-9.92,10.91c-3.83,4.21 -10.37,4.52 -14.58,0.69c-4.21,-3.83 -4.52,-10.37 -0.68,-14.58l9.92,-10.91c2.04,-2.24 4.83,-3.37 7.64,-3.37c2.48,0 4.97,0.89 6.94,2.68c4.21,3.83 4.52,10.38 0.69,14.59l-0.01,-0.01zm42.94,-41.79c-6.51,0 -11.8,-5.29 -11.8,-11.8c0,-6.51 5.29,-11.8 11.8,-11.8c6.51,0 11.8,5.29 11.8,11.8s-5.29,11.8 -11.8,11.8zm67.45,53.38c-2.03,1.85 -4.67,2.81 -7.43,2.66c-2.77,-0.13 -5.31,-1.31 -7.15,-3.35l-9.94,-10.9c-1.85,-2.03 -2.79,-4.67 -2.67,-7.43c0.13,-2.77 1.31,-5.31 3.34,-7.15c1.98,-1.8 4.47,-2.69 6.95,-2.69c2.8,0 5.6,1.13 7.64,3.37l9.93,10.9c3.84,4.21 3.54,10.75 -0.67,14.59z" fill="#ffffff" id="svg_8"/>
  </g>
 </g>
</svg>