<?xml version="1.0"?>
<svg width="500" height="500" xmlns="http://www.w3.org/2000/svg" xmlns:svg="http://www.w3.org/2000/svg" version="1.2">
 <g class="layer">
  <title>Layer 1</title>
  <path class="s0" d="m499.1,92.39l0,315.63c0,50.51 -41.16,91.39 -91.55,91.39l-316.2,0c-50.39,0 -91.45,-41.08 -91.45,-91.39l0,-315.63c0,-50.51 40.96,-91.39 91.45,-91.39l316.2,0c50.39,0 91.55,40.98 91.55,91.39z" fill="#686868" id="svg_5" transform="matrix(1 0 0 1 0 0)"/>
  <g id="svg_6" transform="matrix(-0.714623 -0.735612 0.715594 -0.734614 512.425 739.435)">
   <path d="m95.92,546.95a37.92,37.92 0 1 0 -37.92,37.92a37.72,37.72 0 0 0 25.49,-10.07l18.81,17.37l0.1,0.1l0,0l-18.91,17.47a37.72,37.72 0 0 0 -25.49,-10.07a37.92,37.92 0 1 0 37.92,37.92c0,-3.08 -0.41,-5.96 -1.13,-8.84l29.19,-20.45l42.45,31.55c22.71,15.83 38.64,-6.89 38.64,-6.89l-110.28,-77.19c0.72,-2.88 1.13,-5.76 1.13,-8.84l0,0.02zm-37.92,18.5a18.5,18.5 0 1 1 0,-37a18.5,18.5 0 0 1 0,37zm0,90.65a18.5,18.5 0 1 1 0,-37a18.5,18.5 0 0 1 0,37zm147.07,-104.52s-15.93,-22.71 -38.64,-6.78l-32.89,22.92l24.15,16.96l47.38,-33.09l0,-0.01z" fill="#ffffff" id="svg_4" transform="matrix(0.707107 -0.707107 0.707107 0.707107 -199.023 215.815)"/>
  </g>
  <g id="svg_25" transform="matrix(1 0 0 1 0 0)">
   <path d="m117.69,94.69l-17.87,0l-11.91,44.64l-11.91,-44.64l-19.88,0c3.96,11.65 7.95,21.36 11.91,33.02c5.95,15.53 9.94,29.11 9.94,36.89l0,46.6l17.87,0l0,-46.6l21.85,-69.88l0,-0.03zm47.68,87.36l0,-29.11c0,-9.71 -1.99,-15.53 -5.95,-21.36s-9.94,-7.78 -17.87,-7.78c-7.95,0 -13.9,3.87 -17.87,9.71c-3.96,3.87 -5.95,9.71 -5.95,19.42l0,31.06c0,9.71 1.99,15.53 5.95,19.42c3.96,5.82 9.94,7.78 17.87,7.78s13.9,-3.87 17.87,-9.71c3.96,-1.93 5.95,-9.71 5.95,-19.42l0,-0.01zm-15.89,3.87c0,7.78 -1.99,11.65 -7.95,11.65s-7.95,-3.87 -7.95,-11.65l0,-36.89c0,-7.78 1.99,-11.65 7.95,-11.65s7.95,3.87 7.95,11.65l0,36.89zm75.49,25.24l0,-87.36l-15.89,0l0,65.99c-3.96,5.82 -5.95,7.78 -9.94,7.78c-1.99,0 -3.96,-1.93 -3.96,-3.87c0,0 0,-1.93 0,-5.82l0,-64.06l-15.89,0l0,67.94c0,5.82 0,9.71 1.99,13.59c0,3.87 3.96,5.82 9.94,5.82s11.91,-3.87 17.87,-9.71l0,9.71l15.89,0l0,-0.01l-0.01,0z" fill="#ffffff" id="svg_26"/>
   <path d="m232.9,298.51c-5.95,0 -7.95,3.87 -7.95,11.65l0,7.78l15.89,0l0,-7.78c0,-7.78 -1.99,-11.65 -7.95,-11.65l0.03,0l-0.01,0l-0.01,0z" fill="#ffffff" id="svg_27"/>
   <path d="m175.29,298.51c-1.99,0 -5.95,1.93 -7.95,3.87l0,52.41c1.99,1.93 5.95,3.87 7.95,3.87c3.96,0 5.95,-3.87 5.95,-11.65l0,-36.89c0,-7.78 -1.99,-11.65 -5.95,-11.65l0,0.03l0,0.01z" fill="#ffffff" id="svg_28"/>
   <path d="m272.64,255.82c-3.96,-13.59 -15.89,-25.24 -27.81,-25.24c-31.77,-3.87 -65.55,-3.87 -99.33,-3.87s-65.55,0 -99.33,3.87c-11.91,0 -23.84,11.65 -27.81,25.24c-3.96,19.42 -3.96,40.77 -3.96,60.19s0,40.77 3.96,60.19c3.96,13.59 13.9,23.31 27.81,25.24c33.78,3.87 65.55,3.87 99.33,3.87s65.55,0 99.33,-3.87c13.9,-1.93 25.82,-11.65 27.81,-25.24c3.96,-19.42 3.96,-40.77 3.96,-60.19s0,-40.77 -3.96,-60.19zm-182.75,17.46l-19.88,0l0,99.01l-17.87,0l0,-99.01l-17.87,0l0,-17.46l55.61,0l0,17.46l0.01,0zm47.68,99.01l-15.89,0l0,-9.71c-5.95,7.78 -11.91,9.71 -17.87,9.71s-7.95,-1.93 -9.94,-5.82c0,-1.93 -1.99,-5.82 -1.99,-13.59l0,-67.94l15.89,0l0,62.12c0,3.87 0,5.82 0,5.82c0,1.93 1.99,3.87 3.96,3.87c3.96,0 5.95,-1.93 9.94,-7.78l0,-64.06l15.89,0l0,87.36l0,0.01l0.01,0.01zm59.6,-27.17c0,7.78 0,13.59 -1.99,17.46c-1.99,5.82 -5.95,9.71 -11.91,9.71s-11.91,-3.87 -15.89,-9.71l0,7.78l-15.89,0l0,-114.54l15.89,0l0,36.89c5.95,-5.82 9.94,-9.71 15.89,-9.71s9.94,3.87 11.91,9.71c1.99,3.87 1.99,9.71 1.99,17.46l0,34.95zm59.6,-13.59l-31.77,0l0,15.53c0,7.78 1.99,11.65 7.95,11.65c3.96,0 5.95,-1.93 7.95,-5.82c0,0 0,-3.87 0,-9.71l15.89,0l0,1.93c0,5.82 0,7.78 0,9.71c0,3.87 -1.99,5.82 -3.96,9.71c-3.96,5.82 -9.94,9.71 -19.88,9.71c-7.95,0 -13.9,-3.87 -19.88,-9.71c-3.96,-3.87 -5.95,-11.65 -5.95,-19.42l0,-29.11c0,-9.71 1.99,-15.53 3.96,-19.42c3.96,-5.82 9.94,-9.71 19.88,-9.71c7.95,0 13.9,3.87 17.87,9.71c3.96,3.87 3.96,11.65 3.96,19.42l0,15.53l3.96,0l0.01,0l0.01,0z" fill="#ffffff" id="svg_29"/>
  </g>
  <rect fill="#686868" height="349" id="svg_30" width="212.55" x="241" y="83"/>
  <line id="svg_9" stroke="rgb(255, 255, 255)" stroke-dasharray="15, 10" stroke-width="4px" x1="243" x2="243" y1="554" y2="-46"/>
  <g id="svg_1">
   <g id="svg_2">
    <path d="m-318,215.61c-5.52,0 -10,-4.64 -10,-10.36l0,-51.79c0,-5.75 4.48,-10.36 10,-10.36s10,4.6 10,10.36l0,51.79c0,5.72 -4.48,10.36 -10,10.36z" fill="#bfbfbf" id="svg_3"/>
   </g>
   <g id="svg_13">
    <path d="m-288.84,241.48c-5.52,0 -10,-4.64 -10,-10.36l0,-103.58c0,-5.72 4.48,-10.36 10,-10.36s10,4.64 10,10.36l0,103.58c0,5.72 -4.48,10.36 -10,10.36z" fill="#bfbfbf" id="svg_14"/>
   </g>
   <g id="svg_15">
    <path d="m-259.67,228.55c-5.52,0 -10,-4.64 -10,-10.36l0,-77.71c0,-5.72 4.48,-10.36 10,-10.36c5.52,0 10,4.64 10,10.36l0,77.71c0,5.72 -4.48,10.36 -10,10.36z" fill="#bfbfbf" id="svg_16"/>
   </g>
   <g id="svg_17">
    <path d="m-230.5,254.46c-5.52,0 -10,-4.64 -10,-10.41l0,-129.45c0,-5.72 4.48,-10.36 10,-10.36s10,4.6 10,10.36l0,129.45c0,5.75 -4.48,10.41 -10,10.41z" fill="#bfbfbf" id="svg_18"/>
   </g>
   <g id="svg_19">
    <path d="m-201.33,281c-5.52,0 -10,-4.64 -10,-10.36l0,-181.28c0,-5.72 4.48,-10.36 10,-10.36c5.52,0 10,4.64 10,10.36l0,181.28c0,5.72 -4.48,10.36 -10,10.36z" fill="#bfbfbf" id="svg_20"/>
   </g>
   <g id="svg_21">
    <path d="m-172.16,241.48c-5.52,0 -10,-4.64 -10,-10.36l0,-103.58c0,-5.72 4.48,-10.36 10,-10.36c5.52,0 10,4.64 10,10.36l0,103.58c0,5.72 -4.48,10.36 -10,10.36z" fill="#bfbfbf" id="svg_22"/>
   </g>
   <g id="svg_23">
    <path d="m-143,202.63c-5.52,0 -10,-4.64 -10,-10.36l0,-25.87c0,-5.72 4.48,-10.36 10,-10.36s10,4.64 10,10.36l0,25.87c0,5.72 -4.48,10.36 -10,10.36z" fill="#bfbfbf" id="svg_24"/>
   </g>
  </g>
  <g id="svg_10">
   <g id="svg_35">
    <path d="m257.79,326.46c-4.85,0 -8.79,-4.08 -8.79,-9.15l0,-113.8c0,-5.03 3.94,-9.11 8.79,-9.11s8.79,4.04 8.79,9.11l0,113.8c0,5.05 -3.94,9.15 -8.79,9.15z" fill="#bfbfbf" id="svg_36"/>
   </g>
   <g id="svg_37">
    <path d="m283.43,349.79c-4.85,0 -8.79,-4.08 -8.79,-9.11l0,-159.36c0,-5.03 3.94,-9.11 8.79,-9.11c4.85,0 8.79,4.08 8.79,9.11l0,159.36c0,5.03 -3.94,9.11 -8.79,9.11z" fill="#bfbfbf" id="svg_38"/>
   </g>
   <g id="svg_39">
    <path d="m309.08,315.05c-4.85,0 -8.79,-4.08 -8.79,-9.11l0,-91.05c0,-5.03 3.94,-9.11 8.79,-9.11c4.85,0 8.79,4.08 8.79,9.11l0,91.05c0,5.03 -3.94,9.11 -8.79,9.11z" fill="#bfbfbf" id="svg_40"/>
   </g>
   <g id="svg_41">
    <path d="m334.71,280.89c-4.85,0 -8.79,-4.08 -8.79,-9.11l0,-22.74c0,-5.03 3.94,-9.11 8.79,-9.11s8.79,4.08 8.79,9.11l0,22.74c0,5.03 -3.94,9.11 -8.79,9.11z" fill="#bfbfbf" id="svg_42"/>
   </g>
  </g>
  <g id="svg_7" transform="matrix(1 0 0 1 0 0) matrix(0 -1.06706 1.06706 0 84.4437 674.593)">
   <path d="m468.8,331.71l-9.92,-10.9c-8.19,-8.98 -20.91,-11.38 -31.53,-6.94l-7.12,-7.12c1.78,-4.22 2.77,-8.85 2.77,-13.71c0,-3.01 -0.42,-5.99 -1.17,-8.88l53.35,-50.92c0.65,-0.62 0.92,-1.46 0.87,-2.29c0.01,-0.07 0.04,-0.12 0.04,-0.19c0,-12.9 -3.19,-26.69 -10.15,-28.59c-1.11,-0.77 -2.61,-0.75 -3.65,0.2l-62.46,57.47c-7.84,-2.89 -16.65,-2.88 -24.5,0.01l-62.76,-57.48c-1.05,-0.96 -2.59,-0.96 -3.7,-0.16c-2.38,0.7 -5.16,3.03 -7.25,9.4c-1.7,5.21 -2.59,12.06 -2.5,19.29c0,0.06 0.03,0.11 0.04,0.18c-0.03,0.82 0.24,1.65 0.88,2.25l53.31,50.81c-0.75,2.9 -1.15,5.88 -1.15,8.89c0,4.86 0.99,9.49 2.77,13.71l-7.12,7.13c-3.8,-1.58 -7.92,-2.35 -12.14,-2.16c-7.49,0.35 -14.39,3.58 -19.41,9.1l-9.92,10.91c-5.02,5.51 -7.58,12.68 -7.24,20.18c0.36,7.49 3.59,14.39 9.1,19.4c5.18,4.72 11.82,7.27 18.81,7.27c0.45,0 0.91,-0.01 1.36,-0.03c7.5,-0.35 14.39,-3.58 19.41,-9.1l9.92,-10.91c5.02,-5.52 7.59,-12.68 7.23,-20.18c-0.2,-4.34 -1.4,-8.47 -3.42,-12.16l4.53,-4.53c0.11,-0.12 0.17,-0.26 0.26,-0.39c5.93,4.47 13.27,7.16 21.25,7.16c7.98,0 15.32,-2.68 21.25,-7.16c0.09,0.13 0.15,0.28 0.26,0.39l4.53,4.53c-2.03,3.7 -3.23,7.83 -3.43,12.19c-0.35,7.5 2.23,14.66 7.25,20.17l9.93,10.9c5.02,5.51 11.92,8.74 19.41,9.09c0.45,0.02 0.9,0.03 1.34,0.03c7.01,0 13.64,-2.56 18.83,-7.28c11.42,-10.41 12.24,-28.16 1.84,-39.59l0,0.01zm-124.14,14.92l-9.92,10.91c-3.83,4.21 -10.37,4.52 -14.58,0.69c-4.21,-3.83 -4.52,-10.37 -0.68,-14.58l9.92,-10.91c2.04,-2.24 4.83,-3.37 7.64,-3.37c2.48,0 4.97,0.89 6.94,2.68c4.21,3.83 4.52,10.38 0.69,14.59l-0.01,-0.01zm42.94,-41.79c-6.51,0 -11.8,-5.29 -11.8,-11.8c0,-6.51 5.29,-11.8 11.8,-11.8c6.51,0 11.8,5.29 11.8,11.8s-5.29,11.8 -11.8,11.8zm67.45,53.38c-2.03,1.85 -4.67,2.81 -7.43,2.66c-2.77,-0.13 -5.31,-1.31 -7.15,-3.35l-9.94,-10.9c-1.85,-2.03 -2.79,-4.67 -2.67,-7.43c0.13,-2.77 1.31,-5.31 3.34,-7.15c1.98,-1.8 4.47,-2.69 6.95,-2.69c2.8,0 5.6,1.13 7.64,3.37l9.93,10.9c3.84,4.21 3.54,10.75 -0.67,14.59z" fill="#ffffff" id="svg_8"/>
  </g>
 </g>
</svg>