<?xml version="1.0"?>
<svg width="500" height="500" xmlns="http://www.w3.org/2000/svg" xmlns:svg="http://www.w3.org/2000/svg" version="1.2">
 <g class="layer">
  <title>Layer 1</title>
  <path class="s0" d="m499.1,92.39l0,315.63c0,50.51 -41.16,91.39 -91.55,91.39l-316.2,0c-50.39,0 -91.45,-41.08 -91.45,-91.39l0,-315.63c0,-50.51 40.96,-91.39 91.45,-91.39l316.2,0c50.39,0 91.55,40.98 91.55,91.39z" fill="#3e4a78" id="svg_5" transform="matrix(1 0 0 1 0 0)"/>
  <g id="svg_6" transform="matrix(1 0 0 1 0 0) matrix(-0.714623 -0.735612 0.715594 -0.734614 512.425 739.435)">
   <path d="m95.92,546.95a37.92,37.92 0 1 0 -37.92,37.92a37.72,37.72 0 0 0 25.49,-10.07l18.81,17.37l0.1,0.1l0,0l-18.91,17.47a37.72,37.72 0 0 0 -25.49,-10.07a37.92,37.92 0 1 0 37.92,37.92c0,-3.08 -0.41,-5.96 -1.13,-8.84l29.19,-20.45l42.45,31.55c22.71,15.83 38.64,-6.89 38.64,-6.89l-110.28,-77.19c0.72,-2.88 1.13,-5.76 1.13,-8.84l0,0.02zm-37.92,18.5a18.5,18.5 0 1 1 0,-37a18.5,18.5 0 0 1 0,37zm0,90.65a18.5,18.5 0 1 1 0,-37a18.5,18.5 0 0 1 0,37zm147.07,-104.52s-15.93,-22.71 -38.64,-6.78l-32.89,22.92l24.15,16.96l47.38,-33.09l0,-0.01z" fill="#ffffff" id="svg_4" transform="matrix(0.707107 -0.707107 0.707107 0.707107 -199.023 215.815)"/>
  </g>
  <rect fill="#3e4a78" height="349" id="svg_30" width="212.55" x="241" y="83"/>
  <g id="svg_1">
   <g id="svg_2">
    <path d="m96.99,312.27c-9.65,0 -17.49,-8.11 -17.49,-18.12l0,-90.57c0,-10.06 7.83,-18.12 17.49,-18.12s17.49,8.04 17.49,18.12l0,90.57c0,10 -7.83,18.12 -17.49,18.12z" fill="#ffffff" id="svg_3"/>
   </g>
   <g id="svg_13">
    <path d="m147.98,357.51c-9.65,0 -17.49,-8.11 -17.49,-18.12l0,-181.13c0,-10 7.83,-18.12 17.49,-18.12s17.49,8.11 17.49,18.12l0,181.13c0,10 -7.83,18.12 -17.49,18.12z" fill="#ffffff" id="svg_14"/>
   </g>
   <g id="svg_15">
    <path d="m198.99,334.9c-9.65,0 -17.49,-8.11 -17.49,-18.12l0,-135.89c0,-10 7.83,-18.12 17.49,-18.12c9.65,0 17.49,8.11 17.49,18.12l0,135.89c0,10 -7.83,18.12 -17.49,18.12z" fill="#ffffff" id="svg_16"/>
   </g>
   <g id="svg_17">
    <path d="m250,380.21c-9.65,0 -17.49,-8.11 -17.49,-18.2l0,-226.37c0,-10 7.83,-18.12 17.49,-18.12s17.49,8.04 17.49,18.12l0,226.37c0,10.06 -7.83,18.2 -17.49,18.2z" fill="#ffffff" id="svg_18"/>
   </g>
   <g id="svg_19">
    <path d="m301.01,426.62c-9.65,0 -17.49,-8.11 -17.49,-18.12l0,-317.01c0,-10 7.83,-18.12 17.49,-18.12c9.65,0 17.49,8.11 17.49,18.12l0,317.01c0,10 -7.83,18.12 -17.49,18.12z" fill="#ffffff" id="svg_20"/>
   </g>
   <g id="svg_21">
    <path d="m352.02,357.51c-9.65,0 -17.49,-8.11 -17.49,-18.12l0,-181.13c0,-10 7.83,-18.12 17.49,-18.12c9.65,0 17.49,8.11 17.49,18.12l0,181.13c0,10 -7.83,18.12 -17.49,18.12z" fill="#ffffff" id="svg_22"/>
   </g>
   <g id="svg_23">
    <path d="m403.01,289.57c-9.65,0 -17.49,-8.11 -17.49,-18.12l0,-45.24c0,-10 7.83,-18.12 17.49,-18.12s17.49,8.11 17.49,18.12l0,45.24c0,10 -7.83,18.12 -17.49,18.12z" fill="#ffffff" id="svg_24"/>
   </g>
  </g>
 </g>
</svg>