<?xml version="1.0"?>
<svg width="500" height="500" xmlns="http://www.w3.org/2000/svg" xmlns:svg="http://www.w3.org/2000/svg" version="1.2">
 <g class="layer">
  <title>Layer 1</title>
  <g fill-opacity="0.8" id="svg_50">
   <g id="svg_51">
    <path d="m67.21,353.55c-24.2,0 -43.86,-12.13 -43.86,-27.1l0,-135.43c0,-15.04 19.63,-27.1 43.86,-27.1s43.86,12.02 43.86,27.1l0,135.43c0,14.95 -19.63,27.1 -43.86,27.1z" fill="#f0f0f0" id="svg_52"/>
   </g>
   <g id="svg_53">
    <path d="m124.92,408.07c-24.75,0 -44.86,-11.3 -44.86,-25.24l0,-252.29c0,-13.93 20.08,-25.24 44.86,-25.24s44.86,11.3 44.86,25.24l0,252.29c0,13.93 -20.08,25.24 -44.86,25.24z" fill="#f0f0f0" id="svg_54"/>
   </g>
   <g id="svg_55">
    <path d="m188.31,384.82c-24.2,0 -43.86,-11.93 -43.86,-26.66l0,-199.93c0,-14.71 19.63,-26.66 43.86,-26.66c24.2,0 43.86,11.93 43.86,26.66l0,199.93c0,14.71 -19.63,26.66 -43.86,26.66z" fill="#f0f0f0" id="svg_56"/>
   </g>
   <g id="svg_57">
    <path d="m247.33,437.43c-24.75,0 -44.86,-11.19 -44.86,-25.11l0,-312.28c0,-13.8 20.08,-25 44.86,-25s44.86,11.09 44.86,25l0,312.28c0,13.88 -20.08,25.11 -44.86,25.11z" fill="#f0f0f0" id="svg_58"/>
   </g>
   <g id="svg_59">
    <path d="m306.95,488.51c-25.02,0 -45.36,-10.71 -45.36,-23.93l0,-418.66c0,-13.21 20.31,-23.93 45.36,-23.93c25.02,0 45.36,10.71 45.36,23.93l0,418.66c0,13.21 -20.31,23.93 -45.36,23.93z" fill="#f0f0f0" id="svg_60"/>
   </g>
   <g id="svg_61">
    <path d="m369.96,412.07c-23.92,0 -43.36,-11.48 -43.36,-25.66l0,-256.45c0,-14.16 19.41,-25.66 43.36,-25.66c23.92,0 43.36,11.48 43.36,25.66l0,256.45c0,14.16 -19.41,25.66 -43.36,25.66z" fill="#f0f0f0" id="svg_62"/>
   </g>
   <g id="svg_63">
    <path d="m427.79,326.19c-22.27,0 -40.36,-13.64 -40.36,-30.46l0,-76.06c0,-16.81 18.07,-30.46 40.36,-30.46s40.36,13.64 40.36,30.46l0,76.06c0,16.81 -18.07,30.46 -40.36,30.46z" fill="#f0f0f0" id="svg_64"/>
   </g>
  </g>
  <g id="svg_5">
   <g id="svg_6">
    <path d="m75.71,343.05c-24.2,0 -43.86,-12.13 -43.86,-27.1l0,-135.43c0,-15.04 19.63,-27.1 43.86,-27.1s43.86,12.02 43.86,27.1l0,135.43c0,14.95 -19.63,27.1 -43.86,27.1z" fill="#ffffff" id="svg_7"/>
   </g>
   <g id="svg_8">
    <path d="m133.42,397.57c-24.75,0 -44.86,-11.3 -44.86,-25.24l0,-252.29c0,-13.93 20.08,-25.24 44.86,-25.24s44.86,11.3 44.86,25.24l0,252.29c0,13.93 -20.08,25.24 -44.86,25.24z" fill="#ffffff" id="svg_9"/>
   </g>
   <g id="svg_10">
    <path d="m196.81,374.32c-24.2,0 -43.86,-11.93 -43.86,-26.66l0,-199.93c0,-14.71 19.63,-26.66 43.86,-26.66c24.2,0 43.86,11.93 43.86,26.66l0,199.93c0,14.71 -19.63,26.66 -43.86,26.66z" fill="#ffffff" id="svg_11"/>
   </g>
   <g id="svg_12">
    <path d="m255.83,426.93c-24.75,0 -44.86,-11.19 -44.86,-25.11l0,-312.28c0,-13.8 20.08,-25 44.86,-25s44.86,11.09 44.86,25l0,312.28c0,13.88 -20.08,25.11 -44.86,25.11z" fill="#ffffff" id="svg_25"/>
   </g>
   <g id="svg_26">
    <path d="m315.45,478.01c-25.02,0 -45.36,-10.71 -45.36,-23.93l0,-418.66c0,-13.21 20.31,-23.93 45.36,-23.93c25.02,0 45.36,10.71 45.36,23.93l0,418.66c0,13.21 -20.31,23.93 -45.36,23.93z" fill="#ffffff" id="svg_27"/>
   </g>
   <g id="svg_28">
    <path d="m378.46,401.57c-23.92,0 -43.36,-11.48 -43.36,-25.66l0,-256.45c0,-14.16 19.41,-25.66 43.36,-25.66c23.92,0 43.36,11.48 43.36,25.66l0,256.45c0,14.16 -19.41,25.66 -43.36,25.66z" fill="#ffffff" id="svg_29"/>
   </g>
   <g id="svg_30">
    <path d="m436.29,315.69c-22.27,0 -40.36,-13.64 -40.36,-30.46l0,-76.06c0,-16.81 18.07,-30.46 40.36,-30.46s40.36,13.64 40.36,30.46l0,76.06c0,16.81 -18.07,30.46 -40.36,30.46z" fill="#ffffff" id="svg_31"/>
   </g>
  </g>
  <g id="svg_1">
   <g id="svg_2" transform="matrix(1 0 0 1 0 0)">
    <path d="m73.09,323.19c-11.46,0 -20.76,-9.63 -20.76,-21.51l0,-107.53c0,-11.94 9.3,-21.51 20.76,-21.51s20.76,9.55 20.76,21.51l0,107.53c0,11.87 -9.3,21.51 -20.76,21.51z" fill="#686868" id="svg_3" stroke="#686868"/>
   </g>
   <g id="svg_13" transform="matrix(1 0 0 1 0 0)">
    <path d="m133.63,376.9c-11.46,0 -20.76,-9.63 -20.76,-21.51l0,-215.05c0,-11.87 9.3,-21.51 20.76,-21.51s20.76,9.63 20.76,21.51l0,215.05c0,11.87 -9.3,21.51 -20.76,21.51z" fill="#686868" id="svg_14" stroke="#686868"/>
   </g>
   <g id="svg_15" transform="matrix(1 0 0 1 0 0)">
    <path d="m194.19,350.05c-11.46,0 -20.76,-9.63 -20.76,-21.51l0,-161.33c0,-11.87 9.3,-21.51 20.76,-21.51c11.46,0 20.76,9.63 20.76,21.51l0,161.33c0,11.87 -9.3,21.51 -20.76,21.51z" fill="#686868" id="svg_16" stroke="#686868"/>
   </g>
   <g id="svg_17" transform="matrix(1 0 0 1 0 0)">
    <path d="m254.75,403.85c-11.46,0 -20.76,-9.63 -20.76,-21.61l0,-268.76c0,-11.87 9.3,-21.51 20.76,-21.51s20.76,9.55 20.76,21.51l0,268.76c0,11.94 -9.3,21.61 -20.76,21.61z" fill="#686868" id="svg_18" stroke="#686868"/>
   </g>
   <g id="svg_19" transform="matrix(1 0 0 1 0 0)">
    <path d="m315.31,458.95c-11.46,0 -20.76,-9.63 -20.76,-21.51l0,-376.37c0,-11.87 9.3,-21.51 20.76,-21.51c11.46,0 20.76,9.63 20.76,21.51l0,376.37c0,11.87 -9.3,21.51 -20.76,21.51z" fill="#686868" id="svg_20" stroke="#686868"/>
   </g>
   <g id="svg_21">
    <path d="m375.87,376.9c-11.46,0 -20.76,-9.63 -20.76,-21.51l0,-215.05c0,-11.87 9.3,-21.51 20.76,-21.51c11.46,0 20.76,9.63 20.76,21.51l0,215.05c0,11.87 -9.3,21.51 -20.76,21.51z" fill="#686868" id="svg_22" stroke="#686868"/>
   </g>
   <g id="svg_23" transform="matrix(1 0 0 1 0 0)">
    <path d="m436.41,296.24c-11.46,0 -20.76,-9.63 -20.76,-21.51l0,-53.71c0,-11.87 9.3,-21.51 20.76,-21.51s20.76,9.63 20.76,21.51l0,53.71c0,11.87 -9.3,21.51 -20.76,21.51z" fill="#686868" id="svg_24" stroke="#686868"/>
   </g>
  </g>
 </g>
</svg>