<?xml version="1.0"?>
<svg width="500" height="500" xmlns="http://www.w3.org/2000/svg" xmlns:svg="http://www.w3.org/2000/svg" version="1.2">
 <g class="layer">
  <title>Layer 1</title>
  <g id="svg_15">
   <ellipse cx="384.6" cy="341.93" fill="#f0f0f0" id="svg_14" rx="89.38" ry="89.38"/>
   <g id="svg_10">
    <ellipse cx="181.7" cy="244.93" fill="#f0f0f0" id="svg_11" rx="160.42" ry="164.79"/>
    <ellipse cx="305.5" cy="244.93" fill="#f0f0f0" id="svg_12" rx="160.42" ry="164.79"/>
    <rect fill="#f0f0f0" height="329.57" id="svg_13" width="140.66" x="174.72" y="80.14"/>
   </g>
   <g id="svg_6">
    <ellipse cx="184.89" cy="233.48" fill="#ffffff" id="svg_3" rx="160.42" ry="164.79"/>
    <ellipse cx="308.7" cy="233.48" fill="#ffffff" id="svg_4" rx="160.42" ry="164.79"/>
    <rect fill="#ffffff" height="329.57" id="svg_5" width="140.66" x="177.92" y="68.69"/>
   </g>
   <ellipse cx="389.35" cy="331.79" fill="#ffffff" id="svg_7" rx="89.38" ry="89.38"/>
   <path d="m77,313.84c1.47,2.45 0.98,5.4 -1.47,6.87c-0.98,0.49 -1.96,0.98 -2.95,0.98c-1.47,0 -2.95,-0.98 -3.93,-1.96c-4.91,-6.87 -8.84,-14.24 -12.27,-21.6c-0.98,-2.45 0,-5.4 2.45,-6.38s5.4,0 6.38,2.45c3.44,6.38 7.36,13.26 11.78,19.64l0.01,0zm236.16,-218.98c7.86,0.98 15.22,2.95 23.08,4.91c0.49,0 0.98,0 1.47,0c1.96,0 3.93,-1.47 4.91,-3.44c0.98,-2.45 -0.49,-5.4 -3.44,-6.38c-7.86,-2.45 -16.2,-4.42 -24.55,-5.4c-2.45,-0.49 -5.4,1.47 -5.4,4.42c-0.49,3.44 0.98,5.89 3.93,5.89zm-266.11,134.53c0,0 0.49,0 0,0c2.95,0 4.91,-1.96 5.4,-4.42c0.49,-7.86 1.47,-15.71 3.44,-23.08c0.49,-2.45 -0.98,-5.4 -3.44,-5.89c-2.45,-0.49 -5.4,0.98 -5.89,3.44c-1.96,8.35 -3.44,16.2 -3.93,24.55c0,2.95 1.96,5.4 4.42,5.4zm9.82,42.22c-1.96,-7.36 -3.44,-15.22 -4.42,-23.08c-0.49,-2.45 -2.45,-4.42 -5.4,-4.42c-2.45,0.49 -4.91,2.45 -4.42,5.4c0.98,8.35 2.45,16.69 4.42,24.55c0.49,1.96 2.45,3.44 4.91,3.44c0.49,0 0.98,0 1.47,0c2.95,-0.49 4.42,-3.44 3.44,-5.89zm300.97,-162.51c6.87,3.44 13.75,7.86 20.13,12.27c0.98,0.49 1.96,0.98 2.95,0.98c1.47,0 2.95,-0.49 3.93,-1.96c1.47,-1.96 0.98,-5.4 -0.98,-6.87c-6.87,-4.91 -13.75,-9.33 -21.11,-13.26c-2.45,-0.98 -5.4,-0.49 -6.38,1.96c-1.96,2.45 -0.98,5.4 1.47,6.87l-0.01,0.01zm76.59,110.96c0.49,4.91 0.49,9.33 0.49,14.24c0,2.95 0,5.89 -0.49,9.33c0,2.95 1.96,4.91 4.42,5.4c0,0 0,0 0.49,0c2.45,0 4.91,-1.96 4.91,-4.42c0,-3.44 0.49,-6.38 0.49,-9.82c0,-4.91 -0.49,-10.31 -0.98,-15.22c-0.49,-2.45 -2.45,-4.91 -5.4,-4.42c-2.45,0 -4.42,2.45 -3.93,4.91zm-349.58,-78.07c1.47,0 2.45,-0.49 3.44,-1.47c5.4,-5.89 10.8,-11.29 17.18,-16.2c1.96,-1.47 2.45,-4.91 0.98,-6.87c-1.47,-1.96 -4.91,-2.45 -6.87,-0.98c-6.38,5.4 -12.77,10.8 -18.17,17.18c-1.96,1.96 -1.47,4.91 0.49,6.87c0.49,0.98 1.96,1.47 2.95,1.47zm352.52,121.27c0.98,0.49 1.96,1.47 2.95,2.45c-0.49,-1.47 -1.96,-2.45 -2.95,-2.45zm-7.36,-66.28c0.49,1.96 2.45,3.44 4.91,3.44c0.49,0 0.98,0 1.47,0c2.45,-0.49 3.93,-3.44 3.44,-5.89c-2.45,-7.86 -5.4,-15.71 -8.84,-23.57c-0.98,-2.45 -3.93,-3.44 -6.38,-2.45c-2.45,0.98 -3.44,3.93 -2.45,6.38c2.95,7.36 5.89,14.73 7.86,22.09l-0.01,0zm-19.64,-42.22c0.98,1.47 2.45,1.96 3.93,1.96c0.98,0 1.96,-0.49 2.95,-0.98c2.45,-1.47 2.95,-4.42 1.47,-6.87c-4.91,-6.87 -10.31,-13.26 -15.71,-19.15c-1.96,-1.96 -4.91,-1.96 -6.87,0c-1.96,1.96 -1.96,4.91 0,6.87c4.42,5.89 9.82,11.78 14.24,18.17l-0.01,0zm-353.5,27.49c0.49,0.49 1.47,0.49 1.96,0.49c1.96,0 3.93,-0.98 4.42,-2.95c2.95,-7.36 6.87,-14.24 10.8,-20.62c1.47,-2.45 0.98,-5.4 -1.47,-6.87c-2.45,-1.47 -5.4,-0.98 -6.87,1.47c-4.42,6.87 -8.35,14.73 -11.78,22.09c-0.98,2.45 0.49,5.4 2.95,6.38l-0.01,0.01zm34.86,149.75c-1.96,-1.96 -4.91,-1.96 -6.87,0c-1.96,1.96 -1.96,4.91 0,6.87c5.89,5.89 12.27,11.78 18.66,16.69c0.98,0.49 1.96,0.98 2.95,0.98c1.47,0 2.95,-0.49 3.93,-1.96c1.47,-1.96 0.98,-5.4 -0.98,-6.87c-6.38,-4.91 -12.27,-10.31 -17.68,-15.71l-0.01,0zm173.32,-238.12l24.06,0c2.95,0 4.91,-1.96 4.91,-4.91s-1.96,-4.91 -4.91,-4.91l-24.06,0c-2.95,0 -4.91,1.96 -4.91,4.91s2.45,4.91 4.91,4.91zm29.95,281.33l-25.04,0c-2.95,0 -4.91,1.96 -4.91,4.91s1.96,4.91 4.91,4.91l25.04,0c2.95,0 4.91,-1.96 4.91,-4.91s-1.96,-4.91 -4.91,-4.91zm-78.07,-281.33l24.06,0c2.95,0 4.91,-1.96 4.91,-4.91s-1.96,-4.91 -4.91,-4.91l-24.06,0c-2.95,0 -4.91,1.96 -4.91,4.91s1.96,4.91 4.91,4.91zm97.21,284.77c0.49,1.96 1.96,3.44 3.44,3.93c-1.47,-1.96 -2.45,-3.93 -3.44,-5.4c0,0.49 0,0.98 0,1.47zm-68.25,-3.44l-24.06,0c-2.95,0 -4.91,1.96 -4.91,4.91s1.96,4.91 4.91,4.91l24.06,0c2.95,0 4.91,-1.96 4.91,-4.91s-2.45,-4.91 -4.91,-4.91zm-123.24,-263.16c0.98,0 1.47,0 2.45,-0.49c6.87,-3.93 14.24,-6.87 21.6,-9.82c2.45,-0.98 3.93,-3.93 2.95,-6.38s-3.93,-3.93 -6.38,-2.95c-7.86,2.95 -15.71,6.38 -23.08,10.31c-2.45,1.47 -3.44,4.42 -1.96,6.87c0.98,1.47 2.95,2.45 4.42,2.45l0,0.01zm74.63,263.16l-4.42,0c-6.38,0 -12.77,-0.49 -19.15,-1.47c-2.45,-0.49 -5.4,1.47 -5.4,4.42c-0.49,2.45 1.47,5.4 4.42,5.4c6.87,0.98 13.75,1.47 20.13,1.47l4.42,0c2.95,0 4.91,-1.96 4.91,-4.91s-2.45,-4.91 -4.91,-4.91zm-46.64,-6.38c-7.36,-2.45 -14.73,-5.4 -21.6,-8.84c-2.45,-1.47 -5.4,-0.49 -6.38,1.96c-1.47,2.45 -0.49,5.4 1.96,6.38c7.36,3.93 15.22,6.87 23.08,9.33c0.49,0 0.98,0 1.47,0c1.96,0 3.93,-1.47 4.91,-3.44c0.98,-1.96 -0.49,-4.91 -3.44,-5.4l0,0.01zm17.68,-272.98c0.49,0 0.49,0 0.98,0c7.86,-1.47 15.71,-1.96 23.57,-1.96c2.95,0 4.91,-2.45 4.91,-4.91c0,-2.95 -1.96,-4.91 -4.91,-4.91c0,0 0,0 0,0c-8.35,0 -16.69,0.98 -25.04,1.96c-2.45,0.49 -4.42,2.95 -3.93,5.89c0,2.45 1.96,3.93 4.42,3.93zm134.53,238.12c0,7.86 0.98,15.22 2.95,22.58c-4.42,0.49 -8.84,0.49 -13.26,0.49l-98.2,0c-67.75,0 -122.74,-55.48 -122.74,-122.74l0,0c0,-67.26 55.48,-122.74 122.74,-122.74l98.2,0c67.75,0 122.74,55.48 122.74,122.74l0,0c0,5.89 -0.49,11.78 -1.47,17.18c-7.86,-2.45 -16.69,-3.93 -25.53,-3.93c-47.13,0.49 -85.43,38.79 -85.43,86.41l0,0.01zm-11.78,-108.51l-69.72,-51.55c-7.36,-5.4 -17.68,0 -17.68,8.84l0,103.6c0,8.84 10.31,14.24 17.68,8.84l70.21,-52.04c5.4,-4.42 5.4,-13.26 -0.49,-17.68l0,-0.01zm168.9,109c0,39.28 -31.91,71.68 -71.68,71.68s-71.68,-31.91 -71.68,-71.68s31.91,-71.68 71.68,-71.68s71.68,32.4 71.68,71.68zm-78.56,13.75l-20.62,0c-7.36,0 -13.75,-6.38 -13.75,-13.75c0,-7.36 6.38,-13.75 13.75,-13.75l20.62,0l0,-14.73l-20.62,0c-15.71,0 -28.48,12.77 -28.48,28.48c0,15.71 12.77,28.48 28.48,28.48l20.62,0l0,-14.73zm20.13,-6.38c3.93,0 7.36,-3.44 7.36,-7.36s-3.44,-7.36 -7.36,-7.36l-25.53,0c-3.93,0 -7.36,3.44 -7.36,7.36s3.44,7.36 7.36,7.36l25.53,0zm43.21,-7.36c0,-15.71 -12.77,-28.48 -28.48,-28.48l-20.62,0l0,14.73l20.62,0c7.36,0 13.75,6.38 13.75,13.75c0,7.36 -6.38,13.75 -13.75,13.75l-20.62,0l0,14.73l20.62,0c15.71,0 28.48,-12.77 28.48,-28.48z" fill="#686868" id="svg_1"/>
  </g>
 </g>
</svg>